# Blender 4.2.3 LTS
# www.blender.org
mtllib spike.mtl
o Cube
v 1.000000 0.078041 -1.000000
v 1.000000 -0.053894 -1.000000
v 1.257461 0.103675 0.868412
v 1.257461 -0.080306 0.868412
v 0.000000 -0.664733 -1.000000
v 0.000000 0.699619 1.000000
v 0.000000 -0.664733 1.000000
v 0.000000 0.699619 -1.000000
v 1.259098 0.011671 0.999542
v 0.502179 -0.468610 1.000512
v 0.502179 0.484184 1.000512
v 0.000000 0.000000 3.912277
v 0.501631 0.006057 1.191610
v 3.829754 0.078041 -1.000000
v 3.829754 -0.053894 -1.000000
v 3.829754 -0.053894 1.000000
v 3.813922 0.078041 1.000000
v 3.829754 -0.053894 0.068128
v 3.829754 0.078041 -0.039287
v 3.829754 0.078041 0.069846
v 3.825540 -0.053894 -0.040958
v 3.829754 0.024539 -0.039991
v 3.823566 -0.020150 -0.040541
v 3.823826 0.024351 0.069120
v 3.823826 -0.021984 0.068534
v 3.909261 0.024539 -0.039991
v 3.909261 -0.020150 -0.040541
v 3.909261 0.024351 0.069120
v 3.909261 -0.021984 0.068534
v 3.909261 0.024412 0.033783
v 3.909261 0.024470 0.000430
v 3.880523 0.024412 0.033734
v 3.874801 0.024471 -0.000561
v 3.909261 1.096589 0.034482
v 3.909261 1.116637 -0.001927
v 3.864690 1.096589 0.034433
v 3.879866 1.118574 -0.001064
v 3.909261 -0.021348 0.030664
v 3.907752 -0.020870 0.002273
v 3.851823 -0.021338 0.030108
v 3.854542 -0.019937 0.003168
v 3.909261 -0.791557 0.022570
v 3.909261 -0.766314 -0.005821
v 3.873479 -0.791548 0.022014
v 3.876775 -0.766302 -0.006533
v 3.905702 0.185065 0.033954
v 3.909261 0.184106 0.034001
v 3.873677 0.206141 -0.001545
v 3.909261 0.206910 -0.002403
v 3.907508 0.903200 1.000705
v 3.878770 0.903200 1.000656
v 3.878770 -0.008324 1.000177
v 3.907508 -0.009283 1.000224
v 3.844313 1.205285 -0.977796
v 3.879897 1.203348 -0.978659
v 3.879897 0.293622 -0.979135
v 3.850502 0.292853 -0.978277
v 3.909261 0.661773 -0.002165
v 3.857844 0.662357 -0.001304
v 3.879897 0.748485 -0.978897
v 3.844313 0.749069 -0.978036
v 3.865183 1.237795 -0.489430
v 3.874530 0.325362 -0.489911
v 3.894578 0.326131 -0.490769
v 3.894578 1.235858 -0.490293
v 3.894578 0.780994 -0.490531
v 3.843162 0.781578 -0.489670
v 3.909261 0.640347 0.034242
v 3.907508 0.446959 1.000464
v 3.908384 0.104104 0.517113
v 3.908384 1.016587 0.517593
v 3.908384 0.560345 0.517353
v 3.858501 0.640827 0.034194
v 3.862937 0.447438 1.000416
v 3.888993 0.105063 0.517065
v 3.879646 1.016587 0.517544
v 3.857625 0.560825 0.517305
v 1.445300 0.136072 -1.556865
v 1.445300 -0.116849 -1.556865
v 0.000000 1.327647 -1.556865
v 0.000000 -1.287837 -1.556865
v 3.860792 -0.052264 0.026756
v 3.909261 -0.052675 0.027308
v 3.897333 -0.937033 0.994833
v 3.861551 -0.816457 0.994277
v 3.897333 -0.211179 0.999572
v 3.848864 -0.210768 0.999019
v 3.908412 -0.506742 0.040140
v 3.869405 -0.524199 0.014971
v 3.902662 -0.514360 0.971336
v 3.843849 -0.532284 0.942896
v 3.924194 -0.083729 0.479746
v 3.924151 -0.814546 0.474368
v 3.843742 -0.086116 0.478748
v 3.853783 -0.766487 0.473377
v 3.855167 -0.443865 0.489903
v 3.918231 -0.426711 0.518207
v 3.907991 -0.055301 0.000993
v 3.858128 -0.062193 0.001604
v 3.877774 -0.578675 -0.990279
v 3.910261 -0.578687 -0.989567
v 3.859128 0.047327 -0.982142
v 3.908991 0.048831 -0.982753
v 3.923880 -0.452203 -0.023124
v 3.911972 -0.264008 -1.057633
v 3.903501 0.086420 -0.490349
v 3.911190 -0.622405 -0.498124
v 3.907134 -0.265037 -0.539692
v 3.872068 -0.415589 -0.020448
v 3.875100 -0.267005 -1.013243
v 3.852440 0.094392 -0.491186
v 3.878885 -0.586553 -0.498448
v 3.858960 -0.246014 -0.517082
v -1.000000 0.078041 -1.000000
v -1.000000 -0.053894 -1.000000
v -1.257461 0.103675 0.868412
v -1.257461 -0.080306 0.868412
v -1.259098 0.011671 0.999542
v -0.502179 -0.468610 1.000512
v -0.502179 0.484184 1.000512
v -0.501631 0.006057 1.191610
v -3.829754 0.078041 -1.000000
v -3.829754 -0.053894 -1.000000
v -3.829754 -0.053894 1.000000
v -3.813922 0.078041 1.000000
v -3.829754 -0.053894 0.068128
v -3.829754 0.078041 -0.039287
v -3.829754 0.078041 0.069846
v -3.825540 -0.053894 -0.040958
v -3.829754 0.024539 -0.039991
v -3.823566 -0.020150 -0.040541
v -3.823826 0.024351 0.069120
v -3.823826 -0.021984 0.068534
v -3.909261 0.024539 -0.039991
v -3.909261 -0.020150 -0.040541
v -3.909261 0.024351 0.069120
v -3.909261 -0.021984 0.068534
v -3.909261 0.024412 0.033783
v -3.909261 0.024470 0.000430
v -3.880523 0.024412 0.033734
v -3.874801 0.024471 -0.000561
v -3.909261 1.096589 0.034482
v -3.909261 1.116637 -0.001927
v -3.864690 1.096589 0.034433
v -3.879866 1.118574 -0.001064
v -3.909261 -0.021348 0.030664
v -3.907752 -0.020870 0.002273
v -3.851823 -0.021338 0.030108
v -3.854542 -0.019937 0.003168
v -3.909261 -0.791557 0.022570
v -3.909261 -0.766314 -0.005821
v -3.873479 -0.791548 0.022014
v -3.876775 -0.766302 -0.006533
v -3.905702 0.185065 0.033954
v -3.909261 0.184106 0.034001
v -3.873677 0.206141 -0.001545
v -3.909261 0.206910 -0.002403
v -3.907508 0.903200 1.000705
v -3.878770 0.903200 1.000656
v -3.878770 -0.008324 1.000177
v -3.907508 -0.009283 1.000224
v -3.844313 1.205285 -0.977796
v -3.879897 1.203348 -0.978659
v -3.879897 0.293622 -0.979135
v -3.850502 0.292853 -0.978277
v -3.909261 0.661773 -0.002165
v -3.857844 0.662357 -0.001304
v -3.879897 0.748485 -0.978897
v -3.844313 0.749069 -0.978036
v -3.865183 1.237795 -0.489430
v -3.874530 0.325362 -0.489911
v -3.894578 0.326131 -0.490769
v -3.894578 1.235858 -0.490293
v -3.894578 0.780994 -0.490531
v -3.843162 0.781578 -0.489670
v -3.909261 0.640347 0.034242
v -3.907508 0.446959 1.000464
v -3.908384 0.104104 0.517113
v -3.908384 1.016587 0.517593
v -3.908384 0.560345 0.517353
v -3.858501 0.640827 0.034194
v -3.862937 0.447438 1.000416
v -3.888993 0.105063 0.517065
v -3.879646 1.016587 0.517544
v -3.857625 0.560825 0.517305
v -1.445300 0.136072 -1.556865
v -1.445300 -0.116849 -1.556865
v -3.860792 -0.052264 0.026756
v -3.909261 -0.052675 0.027308
v -3.897333 -0.937033 0.994833
v -3.861551 -0.816457 0.994277
v -3.897333 -0.211179 0.999572
v -3.848864 -0.210768 0.999019
v -3.908412 -0.506742 0.040140
v -3.869405 -0.524199 0.014971
v -3.902662 -0.514360 0.971336
v -3.843849 -0.532284 0.942896
v -3.924194 -0.083729 0.479746
v -3.924151 -0.814546 0.474368
v -3.843742 -0.086116 0.478748
v -3.853783 -0.766487 0.473377
v -3.855167 -0.443865 0.489903
v -3.918231 -0.426711 0.518207
v -3.907991 -0.055301 0.000993
v -3.858128 -0.062193 0.001604
v -3.877774 -0.578675 -0.990279
v -3.910261 -0.578687 -0.989567
v -3.859128 0.047327 -0.982142
v -3.908991 0.048831 -0.982753
v -3.923880 -0.452203 -0.023124
v -3.911972 -0.264008 -1.057633
v -3.903501 0.086420 -0.490349
v -3.911190 -0.622405 -0.498124
v -3.907134 -0.265037 -0.539692
v -3.872068 -0.415589 -0.020448
v -3.875100 -0.267005 -1.013243
v -3.852440 0.094392 -0.491186
v -3.878885 -0.586553 -0.498448
v -3.858960 -0.246014 -0.517082
vn 0.4643 -0.8845 -0.0458
vn 0.0051 -1.0000 -0.0072
vn 0.4749 -0.6517 0.5914
vn 0.4715 0.8809 -0.0424
vn 0.7566 0.6113 0.2321
vn 0.7470 -0.6241 0.2293
vn 0.3005 -0.4719 0.8289
vn 0.2948 0.4706 0.8316
vn 0.9999 -0.0160 0.0025
vn 0.0049 1.0000 -0.0069
vn -0.0000 -0.0000 -1.0000
vn -0.0215 -0.0026 0.9998
vn 0.9926 0.1197 -0.0194
vn -0.0000 1.0000 0.0017
vn 0.9982 0.0599 0.0042
vn 0.9981 -0.0556 0.0271
vn 0.9999 -0.0108 -0.0002
vn 0.0017 -0.9999 -0.0134
vn -0.0000 0.0123 -0.9999
vn -0.0030 -0.0011 1.0000
vn 0.0281 0.8604 0.5089
vn -0.9831 -0.0050 0.1829
vn 1.0000 -0.0000 -0.0000
vn 0.0020 -0.0105 -0.9999
vn -0.9968 -0.0288 -0.0741
vn 0.0121 -0.7485 -0.6630
vn 0.9883 -0.0004 0.1523
vn -0.0167 0.0362 -0.9992
vn -0.0108 -0.1087 0.9940
vn -0.0000 -0.0126 0.9999
vn -0.0522 -0.9767 -0.2082
vn -0.9995 0.0241 0.0186
vn -0.0013 -0.0005 1.0000
vn -0.9985 -0.0517 -0.0172
vn -0.0003 0.9813 0.1923
vn 1.0000 -0.0000 0.0018
vn -0.0265 0.0003 -0.9997
vn 0.9995 -0.0000 -0.0301
vn 0.0333 -0.9973 0.0651
vn 0.0576 0.9960 -0.0684
vn 0.0708 0.9695 0.2346
vn 0.0195 -0.9712 -0.2374
vn 0.9995 -0.0000 -0.0300
vn -0.0242 0.0005 -0.9997
vn -0.9988 -0.0411 0.0261
vn -0.9987 -0.0517 0.0015
vn -0.9980 0.0481 0.0418
vn -0.9990 0.0415 0.0143
vn -0.9993 0.0309 0.0197
vn -0.9958 -0.0858 -0.0323
vn 0.4804 0.6479 0.5912
vn 0.7810 -0.0000 0.6245
vn -0.1907 0.1001 0.9765
vn 0.9991 -0.0003 0.0435
vn -0.0177 0.9718 0.2352
vn -0.9996 -0.0273 -0.0075
vn -0.8413 -0.5305 -0.1033
vn -0.4125 -0.9110 -0.0001
vn -0.9999 -0.0089 -0.0083
vn -0.9992 -0.0241 -0.0325
vn -0.9993 -0.0040 -0.0362
vn -0.0162 0.9973 0.0715
vn 0.9991 -0.0004 0.0434
vn 0.9995 0.0126 -0.0273
vn 0.9996 -0.0102 -0.0261
vn -0.2388 -0.1301 0.9623
vn 0.0369 0.9934 0.1082
vn -0.4949 0.0176 -0.8688
vn -0.4756 -0.8640 -0.1653
vn 1.0000 0.0042 0.0041
vn -0.9993 -0.0325 -0.0209
vn 0.9999 0.0081 0.0099
vn 0.9996 0.0273 -0.0122
vn 0.9996 -0.0175 -0.0204
vn -0.9993 -0.0356 -0.0147
vn -0.9994 -0.0357 -0.0015
vn -0.9995 -0.0301 0.0091
vn -0.4643 -0.8845 -0.0458
vn -0.0051 -1.0000 -0.0072
vn -0.4749 -0.6517 0.5914
vn -0.4715 0.8809 -0.0424
vn -0.7566 0.6113 0.2321
vn -0.7470 -0.6241 0.2293
vn -0.3005 -0.4719 0.8289
vn -0.2948 0.4706 0.8316
vn -0.9999 -0.0160 0.0025
vn -0.0049 1.0000 -0.0069
vn 0.0215 -0.0026 0.9998
vn -0.9926 0.1197 -0.0194
vn -0.9982 0.0599 0.0042
vn -0.9981 -0.0556 0.0271
vn -0.9999 -0.0108 -0.0002
vn -0.0017 -0.9999 -0.0134
vn 0.0030 -0.0011 1.0000
vn -0.0281 0.8604 0.5089
vn 0.9831 -0.0050 0.1829
vn -1.0000 -0.0000 -0.0000
vn -0.0020 -0.0105 -0.9999
vn 0.9968 -0.0288 -0.0741
vn -0.0121 -0.7485 -0.6630
vn -0.9883 -0.0004 0.1523
vn 0.0167 0.0362 -0.9992
vn 0.0108 -0.1087 0.9940
vn 0.0522 -0.9767 -0.2082
vn 0.9995 0.0241 0.0186
vn 0.0013 -0.0005 1.0000
vn 0.9985 -0.0517 -0.0172
vn 0.0003 0.9813 0.1923
vn -1.0000 -0.0000 0.0018
vn 0.0265 0.0003 -0.9997
vn -0.9995 -0.0000 -0.0301
vn -0.0333 -0.9973 0.0651
vn -0.0576 0.9960 -0.0684
vn -0.0708 0.9695 0.2346
vn -0.0195 -0.9712 -0.2374
vn -0.9995 -0.0000 -0.0300
vn 0.0242 0.0005 -0.9997
vn 0.9988 -0.0411 0.0261
vn 0.9987 -0.0517 0.0015
vn 0.9980 0.0481 0.0418
vn 0.9990 0.0415 0.0143
vn 0.9993 0.0309 0.0197
vn 0.9958 -0.0858 -0.0323
vn -0.4804 0.6479 0.5912
vn -0.7810 -0.0000 0.6245
vn 0.1907 0.1001 0.9765
vn -0.9991 -0.0003 0.0435
vn 0.0177 0.9718 0.2352
vn 0.9996 -0.0273 -0.0075
vn 0.8413 -0.5305 -0.1033
vn 0.4125 -0.9110 -0.0001
vn 0.9999 -0.0089 -0.0083
vn 0.9992 -0.0241 -0.0325
vn 0.9993 -0.0040 -0.0362
vn 0.0162 0.9973 0.0715
vn -0.9991 -0.0004 0.0434
vn -0.9995 0.0126 -0.0273
vn -0.9996 -0.0102 -0.0261
vn 0.2388 -0.1301 0.9623
vn -0.0369 0.9934 0.1082
vn 0.4949 0.0176 -0.8688
vn 0.4756 -0.8640 -0.1653
vn -1.0000 0.0042 0.0041
vn 0.9993 -0.0325 -0.0209
vn -0.9999 0.0081 0.0099
vn -0.9996 0.0273 -0.0122
vn -0.9996 -0.0175 -0.0204
vn 0.9993 -0.0356 -0.0147
vn 0.9994 -0.0357 -0.0015
vn 0.9995 -0.0301 0.0091
vt 0.250000 0.500000
vt 0.375000 0.500000
vt 0.375000 0.750000
vt 0.312500 0.750000
vt 0.250000 0.750000
vt 0.375000 0.619880
vt 0.375000 0.633516
vt 0.625000 0.500000
vt 0.750000 0.500000
vt 0.750000 0.750000
vt 0.687500 0.750000
vt 0.625000 0.750000
vt 0.500000 0.812500
vt 0.625000 0.812500
vt 0.625000 0.875000
vt 0.500000 0.875000
vt 0.375000 0.812500
vt 0.375000 0.875000
vt 0.500000 0.750000
vt 0.625000 0.620089
vt 0.523601 0.620004
vt 0.438949 0.619934
vt 0.625000 0.633731
vt 0.435457 0.633568
vt 0.523287 0.633643
vt 0.523389 0.629226
vt 0.523389 0.629220
vt 0.523487 0.624933
vt 0.523485 0.625057
vt 0.436669 0.628834
vt 0.437578 0.625285
vt 0.437601 0.625196
vt 0.436687 0.628765
vt 0.523485 0.625057
vt 0.437601 0.625196
vt 0.375000 0.375000
vt 0.625000 0.375000
s 0
usemtl Material
f 5/1/1 2/2/1 4/3/1 10/4/1 7/5/1
f 4/3/2 2/2/2 15/2/2 21/6/2 18/7/2 16/3/2
f 2/2/3 5/1/3 81/1/3 79/2/3
f 1/8/4 8/9/4 6/10/4 11/11/4 3/12/4
f 13/13/5 11/14/5 6/15/5 12/16/5
f 10/17/6 13/13/6 12/16/6 7/18/6
f 4/3/7 9/19/7 13/13/7 10/17/7
f 9/19/8 3/12/8 11/14/8 13/13/8
f 15/2/9 14/8/9 19/20/9 22/21/9 23/22/9 21/6/9
f 1/8/10 3/12/10 17/12/10 20/23/10 19/20/10 14/8/10
f 2/2/11 1/8/11 14/8/11 15/2/11
f 9/19/12 4/3/12 16/3/12 17/12/12 3/12/12
f 21/6/13 23/22/13 25/24/13 18/7/13
f 22/21/14 24/25/14 28/25/14 30/26/14 32/27/14 33/28/14 31/29/14 26/21/14
f 20/23/15 17/12/15 16/3/15 18/7/15 25/24/15 24/25/15
f 22/21/16 19/20/16 20/23/16 24/25/16
f 28/25/17 29/24/17 38/30/17 39/31/17 27/22/17 26/21/17 31/29/17 30/26/17
f 25/24/18 23/22/18 27/22/18 39/31/18 41/32/18 40/33/18 38/30/18 29/24/18
f 23/22/19 22/21/19 26/21/19 27/22/19
f 32/27/20 30/26/20 47/26/20 46/27/20
f 35/29/21 37/28/21 36/27/21 34/26/21
f 33/28/22 32/27/22 46/27/22 73/27/22 36/27/22 37/28/22 59/28/22 48/28/22
f 30/26/23 31/29/23 49/34/23 58/34/23 35/29/23 34/26/23 68/26/23 47/26/23
f 31/29/24 33/28/24 48/28/24 49/34/24
f 40/33/25 41/32/25 99/35/25 109/35/25 45/32/25 44/33/25 89/33/25 82/33/25
f 42/30/26 44/33/26 45/32/26 43/31/26
f 39/31/27 38/30/27 83/30/27 88/30/27 42/30/27 43/31/27 104/31/27 98/31/27
f 41/32/28 39/31/28 98/31/28 99/35/28
f 38/30/29 40/33/29 82/33/29 83/30/29
f 25/24/30 29/24/30 28/25/30 24/25/30
f 46/27/31 47/26/31 70/26/31 53/26/31 52/27/31 75/27/31
f 67/28/32 62/28/32 54/28/32 61/28/32
f 50/26/33 51/27/33 74/27/33 52/27/33 53/26/33 69/26/33
f 77/27/34 75/27/34 52/27/34 74/27/34
f 34/26/35 36/27/35 76/27/35 51/27/35 50/26/35 71/26/35
f 72/26/36 71/26/36 50/26/36 69/26/36
f 61/28/37 60/34/37 56/34/37 57/28/37
f 66/34/38 64/34/38 56/34/38 60/34/38
f 64/34/39 63/28/39 57/28/39 56/34/39
f 62/28/40 65/29/40 55/29/40 54/28/40
f 37/28/41 35/29/41 65/29/41 62/28/41
f 49/34/42 48/28/42 63/28/42 64/34/42
f 65/29/38 66/34/38 60/34/38 55/29/38
f 35/29/43 58/34/43 66/34/43 65/29/43
f 58/34/43 49/34/43 64/34/43 66/34/43
f 54/28/44 55/29/44 60/34/44 61/28/44
f 63/28/45 67/28/45 61/28/45 57/28/45
f 48/28/46 59/28/46 67/28/46 63/28/46
f 59/28/47 37/28/47 62/28/47 67/28/47
f 70/26/36 72/26/36 69/26/36 53/26/36
f 47/26/36 68/26/36 72/26/36 70/26/36
f 68/26/36 34/26/36 71/26/36 72/26/36
f 76/27/48 77/27/48 74/27/48 51/27/48
f 36/27/49 73/27/49 77/27/49 76/27/49
f 73/27/50 46/27/50 75/27/50 77/27/50
f 81/36/11 80/37/11 78/8/11 79/2/11
f 8/9/51 1/8/51 78/8/51 80/9/51
f 1/8/52 2/2/52 79/2/52 78/8/52
f 90/30/53 91/33/53 85/33/53 84/30/53
f 97/30/54 92/30/54 86/30/54 90/30/54
f 92/30/55 94/33/55 87/33/55 86/30/55
f 96/33/56 95/33/56 85/33/56 91/33/56
f 95/33/57 93/30/57 84/30/57 85/33/57
f 44/33/58 42/30/58 93/30/58 95/33/58
f 94/33/59 96/33/59 91/33/59 87/33/59
f 82/33/60 89/33/60 96/33/60 94/33/60
f 89/33/61 44/33/61 95/33/61 96/33/61
f 83/30/62 82/33/62 94/33/62 92/30/62
f 93/30/63 97/30/63 90/30/63 84/30/63
f 42/30/64 88/30/64 97/30/64 93/30/64
f 88/30/65 83/30/65 92/30/65 97/30/65
f 86/30/66 87/33/66 91/33/66 90/30/66
f 99/35/67 98/31/67 106/31/67 103/31/67 102/35/67 111/35/67
f 103/31/68 105/31/68 101/31/68 100/32/68 110/35/68 102/35/68
f 43/31/69 45/32/69 112/32/69 100/32/69 101/31/69 107/31/69
f 108/31/70 107/31/70 101/31/70 105/31/70
f 113/35/71 111/35/71 102/35/71 110/35/71
f 106/31/72 108/31/72 105/31/72 103/31/72
f 98/31/73 104/31/73 108/31/73 106/31/73
f 104/31/74 43/31/74 107/31/74 108/31/74
f 112/32/75 113/35/75 110/35/75 100/32/75
f 45/32/76 109/35/76 113/35/76 112/32/76
f 109/35/77 99/35/77 111/35/77 113/35/77
f 5/1/78 7/5/78 119/4/78 117/3/78 115/2/78
f 117/3/79 124/3/79 126/7/79 129/6/79 123/2/79 115/2/79
f 115/2/80 187/2/80 81/1/80 5/1/80
f 114/8/81 116/12/81 120/11/81 6/10/81 8/9/81
f 121/13/82 12/16/82 6/15/82 120/14/82
f 119/17/83 7/18/83 12/16/83 121/13/83
f 117/3/84 119/17/84 121/13/84 118/19/84
f 118/19/85 121/13/85 120/14/85 116/12/85
f 123/2/86 129/6/86 131/22/86 130/21/86 127/20/86 122/8/86
f 114/8/87 122/8/87 127/20/87 128/23/87 125/12/87 116/12/87
f 115/2/11 123/2/11 122/8/11 114/8/11
f 118/19/88 116/12/88 125/12/88 124/3/88 117/3/88
f 129/6/89 126/7/89 133/24/89 131/22/89
f 130/21/14 134/21/14 139/29/14 141/28/14 140/27/14 138/26/14 136/25/14 132/25/14
f 128/23/90 132/25/90 133/24/90 126/7/90 124/3/90 125/12/90
f 130/21/91 132/25/91 128/23/91 127/20/91
f 136/25/92 138/26/92 139/29/92 134/21/92 135/22/92 147/31/92 146/30/92 137/24/92
f 133/24/93 137/24/93 146/30/93 148/33/93 149/32/93 147/31/93 135/22/93 131/22/93
f 131/22/19 135/22/19 134/21/19 130/21/19
f 140/27/94 154/27/94 155/26/94 138/26/94
f 143/29/95 142/26/95 144/27/95 145/28/95
f 141/28/96 156/28/96 167/28/96 145/28/96 144/27/96 181/27/96 154/27/96 140/27/96
f 138/26/97 155/26/97 176/26/97 142/26/97 143/29/97 166/34/97 157/34/97 139/29/97
f 139/29/98 157/34/98 156/28/98 141/28/98
f 148/33/99 188/33/99 195/33/99 152/33/99 153/32/99 215/35/99 205/35/99 149/32/99
f 150/30/100 151/31/100 153/32/100 152/33/100
f 147/31/101 204/31/101 210/31/101 151/31/101 150/30/101 194/30/101 189/30/101 146/30/101
f 149/32/102 205/35/102 204/31/102 147/31/102
f 146/30/103 189/30/103 188/33/103 148/33/103
f 133/24/30 132/25/30 136/25/30 137/24/30
f 154/27/104 183/27/104 160/27/104 161/26/104 178/26/104 155/26/104
f 175/28/105 169/28/105 162/28/105 170/28/105
f 158/26/106 177/26/106 161/26/106 160/27/106 182/27/106 159/27/106
f 185/27/107 182/27/107 160/27/107 183/27/107
f 142/26/108 179/26/108 158/26/108 159/27/108 184/27/108 144/27/108
f 180/26/109 177/26/109 158/26/109 179/26/109
f 169/28/110 165/28/110 164/34/110 168/34/110
f 174/34/111 168/34/111 164/34/111 172/34/111
f 172/34/112 164/34/112 165/28/112 171/28/112
f 170/28/113 162/28/113 163/29/113 173/29/113
f 145/28/114 170/28/114 173/29/114 143/29/114
f 157/34/115 172/34/115 171/28/115 156/28/115
f 173/29/111 163/29/111 168/34/111 174/34/111
f 143/29/116 173/29/116 174/34/116 166/34/116
f 166/34/116 174/34/116 172/34/116 157/34/116
f 162/28/117 169/28/117 168/34/117 163/29/117
f 171/28/118 165/28/118 169/28/118 175/28/118
f 156/28/119 171/28/119 175/28/119 167/28/119
f 167/28/120 175/28/120 170/28/120 145/28/120
f 178/26/109 161/26/109 177/26/109 180/26/109
f 155/26/109 178/26/109 180/26/109 176/26/109
f 176/26/109 180/26/109 179/26/109 142/26/109
f 184/27/121 159/27/121 182/27/121 185/27/121
f 144/27/122 184/27/122 185/27/122 181/27/122
f 181/27/123 185/27/123 183/27/123 154/27/123
f 81/36/11 187/2/11 186/8/11 80/37/11
f 8/9/124 80/9/124 186/8/124 114/8/124
f 114/8/125 186/8/125 187/2/125 115/2/125
f 196/30/126 190/30/126 191/33/126 197/33/126
f 203/30/127 196/30/127 192/30/127 198/30/127
f 198/30/128 192/30/128 193/33/128 200/33/128
f 202/33/129 197/33/129 191/33/129 201/33/129
f 201/33/130 191/33/130 190/30/130 199/30/130
f 152/33/131 201/33/131 199/30/131 150/30/131
f 200/33/132 193/33/132 197/33/132 202/33/132
f 188/33/133 200/33/133 202/33/133 195/33/133
f 195/33/134 202/33/134 201/33/134 152/33/134
f 189/30/135 198/30/135 200/33/135 188/33/135
f 199/30/136 190/30/136 196/30/136 203/30/136
f 150/30/137 199/30/137 203/30/137 194/30/137
f 194/30/138 203/30/138 198/30/138 189/30/138
f 192/30/139 196/30/139 197/33/139 193/33/139
f 205/35/140 217/35/140 208/35/140 209/31/140 212/31/140 204/31/140
f 209/31/141 208/35/141 216/35/141 206/32/141 207/31/141 211/31/141
f 151/31/142 213/31/142 207/31/142 206/32/142 218/32/142 153/32/142
f 214/31/143 211/31/143 207/31/143 213/31/143
f 219/35/144 216/35/144 208/35/144 217/35/144
f 212/31/145 209/31/145 211/31/145 214/31/145
f 204/31/146 212/31/146 214/31/146 210/31/146
f 210/31/147 214/31/147 213/31/147 151/31/147
f 218/32/148 206/32/148 216/35/148 219/35/148
f 153/32/149 218/32/149 219/35/149 215/35/149
f 215/35/150 219/35/150 217/35/150 205/35/150
